<svg width="30" height="30" viewBox="0 0 30 30" fill="none" xmlns="http://www.w3.org/2000/svg">
<path d="M13.3794 11.6381C13.7584 11.5541 14.0544 11.2581 14.1384 10.8791L15.0244 6.89311C15.2564 5.84911 16.7444 5.84911 16.9764 6.89311L17.8624 10.8791C17.9464 11.2581 18.2424 11.5541 18.6214 11.6381L22.6074 12.5241C23.6514 12.7561 23.6514 14.2441 22.6074 14.4761L18.6214 15.3621C18.2424 15.4461 17.9464 15.7421 17.8624 16.1211L16.9764 20.1071C16.7444 21.1511 15.2564 21.1511 15.0244 20.1071L14.1384 16.1211C14.0544 15.7421 13.7584 15.4461 13.3794 15.3621L9.39335 14.4761C8.34935 14.2441 8.34935 12.7561 9.39335 12.5241L13.3794 11.6381Z" fill="#101010"/>
<path d="M8.0612 19.82C8.4402 19.736 8.73619 19.44 8.82019 19.061L9.09119 17.841C9.18819 17.403 9.8122 17.403 9.9092 17.841L10.1802 19.061C10.2642 19.44 10.5602 19.736 10.9392 19.82L12.1592 20.091C12.5972 20.188 12.5972 20.812 12.1592 20.909L10.9392 21.18C10.5602 21.264 10.2642 21.56 10.1802 21.939L9.9092 23.159C9.8122 23.597 9.18819 23.597 9.09119 23.159L8.82019 21.939C8.73619 21.56 8.4402 21.264 8.0612 21.18L6.8412 20.909C6.4032 20.812 6.4032 20.188 6.8412 20.091L8.0612 19.82Z" fill="#101010"/>
</svg>
