<svg width="283" height="72" viewBox="0 0 283 72" fill="none" xmlns="http://www.w3.org/2000/svg">
<path opacity="0.5" d="M155.892 0.201934C127.464 -0.985692 99.7191 3.20193 76.487 9.17098C53.5958 15.0596 33.7081 22.6617 18.3175 31.408C10.5085 35.8493 3.62495 40.7235 1.05984 46.0307C-1.32668 50.942 0.150688 56.2245 7.19662 60.5111C14.2425 64.7976 25.3147 67.3028 36.9551 68.9914C50.6573 70.9832 65.3661 71.8677 79.9937 71.9852C108.876 72.2141 138.033 69.7585 165.162 66.1213C192.29 62.4842 216.707 57.5296 239.339 51.2142C260.152 45.4121 280.949 37.6802 282.865 27.2946C283.741 22.538 280.397 17.7442 271.825 14.1751C263.253 10.606 251.629 8.71944 239.907 7.43903C210.944 4.27821 179.708 4.43285 150.177 6.19573C120.646 7.95861 89.5398 11.7256 60.2521 15.7462C53.1575 16.7174 46.0953 17.7194 39.0332 18.7153C38.1403 18.839 36.533 19.2596 37.361 19.674C38.189 20.0885 40.5268 19.8349 41.5009 19.6988C69.2463 15.8019 97.1053 11.9112 125.922 9.31944C154.739 6.72769 183.783 5.52151 212.762 6.98748C236.141 8.16892 265.85 10.9648 274.26 20.5771C278.108 24.9751 276.988 29.8307 272.685 34.1173C268.14 38.6513 259.811 42.5235 250.541 45.7894C241.271 49.0554 230.166 52.0801 219.126 54.7337C208.087 57.3873 196.073 59.8492 183.881 61.9152C159.333 66.078 133.049 68.9791 106.327 70.1543C92.1374 70.7791 77.6884 70.8533 63.5641 69.9811C50.7385 69.1894 37.7344 67.6925 26.857 64.9028C16.2881 62.1997 9.16104 58.2038 6.96933 53.41C4.77762 48.6162 7.58625 43.3956 12.9275 38.8431C18.3824 34.1853 26.2239 29.8864 34.5686 25.9153C42.9133 21.9441 52.1185 18.3503 62.2003 15.0782C82.2017 8.57717 106.278 2.89883 132.757 1.5442C139.219 1.21018 145.794 1.15451 152.271 1.42667C153.684 1.48234 155.388 1.39575 156.46 0.99987C157.255 0.702964 157.239 0.257604 155.892 0.201934V0.201934Z" fill="#BAE64B"/>
</svg>
