<svg width="55" height="45" viewBox="0 0 55 45" fill="none" xmlns="http://www.w3.org/2000/svg">
<g clip-path="url(#clip0_30275_22609)">
<path d="M3.68008 28.2699C10.5501 18.9299 17.8101 9.8899 25.3601 1.0799C25.9401 0.399899 24.8601 0.0298985 24.3601 -0.00010146C23.4701 -0.0501015 22.5201 0.339899 21.9401 0.999899C14.2701 9.7299 7.04008 18.8399 0.150082 28.1899C-0.389918 28.9199 0.610082 29.2699 1.18008 29.2999C2.03008 29.3399 3.16008 28.9799 3.68008 28.2699V28.2699Z" fill="#BAE64B"/>
<path d="M13.9403 34.2201C18.1003 31.5001 22.2603 28.7801 26.4103 26.0501C26.9003 25.7301 27.5003 25.0201 26.7303 24.6301C25.9603 24.2401 24.8003 24.5501 24.1403 24.9701C19.9603 27.6801 15.7903 30.3901 11.6103 33.1101C11.1103 33.4401 10.4903 34.1701 11.2803 34.5701C12.0703 34.9701 13.2603 34.6601 13.9303 34.2201H13.9403Z" fill="#BAE64B"/>
<path d="M23.6302 44.02C33.2302 40.86 42.8402 37.72 52.4402 34.53C52.9702 34.36 54.2402 33.9 54.0302 33.12C53.8302 32.38 52.4402 32.53 51.9502 32.69C42.3402 35.82 32.7402 38.98 23.1302 42.14C22.5902 42.32 21.2902 42.78 21.5102 43.58C21.7102 44.33 23.1302 44.18 23.6402 44.01L23.6302 44.02Z" fill="#BAE64B"/>
</g>
<defs>
<clipPath id="clip0_30275_22609">
<rect width="54.05" height="44.15" fill="white"/>
</clipPath>
</defs>
</svg>
